<?xml version="1.0" standalone="no"?><!DOCTYPE svg PUBLIC "-//W3C//DTD SVG 1.1//EN" "http://www.w3.org/Graphics/SVG/1.1/DTD/svg11.dtd"><svg t="1608638054950" class="icon" viewBox="0 0 1024 1024" version="1.1" xmlns="http://www.w3.org/2000/svg" p-id="1890" xmlns:xlink="http://www.w3.org/1999/xlink" width="200" height="200"><defs><style type="text/css"></style></defs><path d="M984.288 971.184L837.568 800H896a31.984 31.984 0 0 0 24.272-52.816L773.568 576H832a31.984 31.984 0 0 0 24.272-52.816L709.568 352H768a32.016 32.016 0 0 0 23.904-53.248l-256-288a31.952 31.952 0 0 0-47.808 0l-256 288A32.016 32.016 0 0 0 256 352h58.432l-146.72 171.184a31.952 31.952 0 0 0-4.784 34.192A32.016 32.016 0 0 0 192 576h58.432l-146.72 171.184a31.952 31.952 0 0 0-4.784 34.192A32.016 32.016 0 0 0 128 800h58.432l-146.72 171.184a31.952 31.952 0 0 0-4.784 34.192A32.016 32.016 0 0 0 64 1024h896a31.984 31.984 0 0 0 24.288-52.816z" fill="#84BF56" p-id="1891"></path><path d="M989.056 1005.376a31.952 31.952 0 0 0-4.784-34.192L837.568 800H896a31.984 31.984 0 0 0 24.272-52.816L773.568 576H832a31.984 31.984 0 0 0 24.272-52.816L709.568 352H768a32.016 32.016 0 0 0 23.904-53.248L542.128 17.712C523.44 6.688 512 0 512 0l192 1024h256c12.496 0 23.84-7.28 29.056-18.624z" opacity=".15" p-id="1892"></path><path d="M672 640m-96 0a96 96 0 1 0 192 0 96 96 0 1 0-192 0Z" fill="#EF4D4D" p-id="1893"></path><path d="M672 736c-47.568 0-86.752-34.624-94.368-80A92.56 92.56 0 0 0 576 672c0 53.04 42.976 96 96 96s96-42.96 96-96c0-5.472-0.72-10.784-1.632-16-7.616 45.376-46.8 80-94.368 80z" opacity=".15" p-id="1894"></path><path d="M672 672c-37.84 0-71.472-16.72-94.912-42.816-0.4 3.6-1.088 7.136-1.088 10.816 0 53.04 42.976 96 96 96s96-42.96 96-96c0-3.68-0.688-7.216-1.088-10.816C743.472 655.28 709.84 672 672 672z" opacity=".15" p-id="1895"></path><path d="M448 320m-96 0a96 96 0 1 0 192 0 96 96 0 1 0-192 0Z" fill="#469FCC" p-id="1896"></path><path d="M448 416c-47.568 0-86.752-34.624-94.368-80A92.56 92.56 0 0 0 352 352c0 53.04 42.976 96 96 96s96-42.96 96-96c0-5.472-0.72-10.784-1.632-16-7.616 45.376-46.8 80-94.368 80z" opacity=".15" p-id="1897"></path><path d="M448 352c-37.84 0-71.472-16.72-94.912-42.816-0.4 3.6-1.088 7.136-1.088 10.816 0 53.04 42.976 96 96 96s96-42.96 96-96c0-3.68-0.688-7.216-1.088-10.816C519.472 335.28 485.84 352 448 352z" opacity=".15" p-id="1898"></path><path d="M352 832m-96 0a96 96 0 1 0 192 0 96 96 0 1 0-192 0Z" fill="#EACA44" p-id="1899"></path><path d="M352 928c-47.568 0-86.752-34.624-94.368-80A92.56 92.56 0 0 0 256 864c0 53.04 42.976 96 96 96s96-42.96 96-96c0-5.472-0.72-10.784-1.632-16-7.616 45.376-46.8 80-94.368 80z" opacity=".15" p-id="1900"></path><path d="M352 864c-37.84 0-71.472-16.72-94.912-42.816-0.4 3.6-1.088 7.136-1.088 10.816 0 53.04 42.976 96 96 96s96-42.96 96-96c0-3.68-0.688-7.216-1.088-10.816C423.472 847.28 389.84 864 352 864z" opacity=".15" p-id="1901"></path></svg>