<?xml version="1.0" standalone="no"?><!DOCTYPE svg PUBLIC "-//W3C//DTD SVG 1.1//EN" "http://www.w3.org/Graphics/SVG/1.1/DTD/svg11.dtd"><svg t="1609742139621" class="icon" viewBox="0 0 1024 1024" version="1.1" xmlns="http://www.w3.org/2000/svg" p-id="1946" xmlns:xlink="http://www.w3.org/1999/xlink" width="200" height="200"><defs><style type="text/css"></style></defs><path d="M210.73502 75.232653l27.083756-27.585306 48.148897 43.133388-23.071346 20.563592h-33.603919l32.600816 7.021714C244.84049 146.452898 224.444082 170.527347 200.704 190.589388h25.579102L252.865306 164.508735l39.12098 35.108571V23.572898l70.718694 10.532571v19.058939c35.442939-9.362286 64.198531-23.740082 86.266775-43.133388l56.173714 44.13649c-36.446041 20.062041-83.926204 32.600816-142.440489 37.616327v69.715592h79.245061l24.074449-19.56049 41.127183 35.610122-19.058938 21.065143h-27.083755v276.354612l-67.709388 6.520164V198.614204h-30.594612v15.046531c0 61.523592-8.860735 112.347429-26.582204 152.47151-15.715265 39.789714-39.12098 76.402939-70.217143 109.839673l-31.096164-21.566694c8.693551-16.384 16.216816-33.102367 22.569796-50.155102l-41.628734 27.585307c-7.690449-28.421224-17.052735-54.836245-28.086858-79.245062v79.746613c0 30.093061-15.046531 45.139592-45.139591 45.139591h-32.099266c0-24.074449-13.040327-36.111673-39.120979-36.111673l1.504653-23.572898h28.588408c9.027918 0 13.541878-7.690449 13.541878-23.071347V353.593469c-18.724571 28.755592-40.291265 55.672163-64.700082 80.749715l-27.585306-22.569796c15.046531-25.077551 29.257143-58.347102 42.631836-99.808653L114.938776 329.51902V300.930612H44.220082L34.690612 264.818939H114.938776v-38.117878H35.192163L25.662694 190.589388h62.693877c-12.705959-24.074449-25.913469-44.303673-39.62253-60.687674l20.062041-18.557387H39.204571L29.675102 75.232653h94.291592c-8.359184-16.718367-16.885551-31.597714-25.579102-44.638041l37.616326-27.083755c19.058939 12.705959 39.288163 29.758694 60.687674 51.158204L168.103184 75.232653h42.631836zM187.663673 326.008163l19.56049-12.037224c24.743184 21.065143 44.805224 41.461551 60.186123 61.189224 16.049633-51.158204 24.241633-105.158531 24.576-162.000979l-15.046531 13.541877H187.663673v38.117878h18.055837l27.083755-27.585306 48.148898 43.133387L257.880816 300.930612H187.663673v25.077551zM110.424816 190.589388h38.117878c15.046531-22.73698 28.421224-49.152 40.124082-79.245061H84.344163c23.740082 16.049633 42.966204 31.764898 57.678368 47.145795l-31.597715 32.099266z m813.014204-128.397061l30.093062-28.588409 51.158204 45.139592-24.074449 22.569796h-126.892408v88.774531h55.170612l29.089959-26.582204 49.653551 43.133387-23.071347 22.569796h-110.842775v110.341225h74.229551l29.089959-26.582204L1005.191837 356.101224l-22.569796 22.569796h-128.898612v93.28849l-82.755919 8.024817V378.67102h-223.190204l-10.03102-39.120979h64.700081V190.087837c-14.377796 11.702857-28.922776 21.39951-43.634938 29.089959l-25.077551-40.124082c41.127184-48.483265 69.548408-103.653878 85.263673-165.511836l94.793143 20.563591a549.198367 549.198367 0 0 1-14.043429 28.086858h223.691755z m-246.261551 39.120979c-14.712163 23.405714-29.925878 43.634939-45.641142 60.687674l54.16751 7.021714v21.065143h85.263673V101.313306h-93.790041z m93.790041 238.236735v-110.341225h-85.263673v110.341225h85.263673z m-722.233469 292.571428l37.616326 7.021715v55.170612c0 44.13649-0.835918 78.910694-2.507755 104.322612l-52.161306-25.579102c4.346776-18.055837 7.857633-40.291265 10.532572-66.706286 3.009306-23.405714 5.182694-48.148898 6.520163-74.229551z m48.148898-77.238857l73.226449 8.526368v75.232653l20.563592-10.532572c24.408816 40.124082 42.966204 74.563918 55.672163 103.31951l-59.684572 29.591511a751.699592 751.699592 0 0 0-16.551183-80.749715v334.534531l-73.226449 9.027918v-468.950204z m284.880979 235.72898v-117.86449h-28.086857v57.176816c0 21.733878-1.337469 41.963102-4.012408 60.687674h32.099265z m-28.086857-153.976163h22.569796l35.610123-34.607021 65.201632 50.656653-20.062041 20.563592v109.839674l13.040327-16.551184 33.603918 40.625633-16.049632 20.06204H381.262367c12.371592 21.733878 26.916571 41.628735 43.634939 59.684572 19.393306 21.733878 45.139592 40.458449 77.238857 56.173714L458.501224 1022.328163c-30.761796-18.390204-57.511184-48.650449-80.248163-90.780734-16.384-30.093061-28.588408-63.864163-36.613224-101.313307-6.35298 26.080653-15.548082 49.319184-27.585306 69.715592-25.746286 48.483265-64.365714 88.27298-115.858286 119.369143L177.632653 989.727347c33.436735-35.108571 58.514286-73.226449 75.232653-114.353633 6.687347-14.377796 11.870041-30.427429 15.548082-48.148898h-72.724898l-10.031021-36.613224h89.276082c2.006204-18.390204 3.009306-38.285061 3.009306-59.684572v-58.179918H222.772245l-8.526367-36.111673H277.942857v-81.251266l75.734204 10.532572v70.718694z m387.197388 25.077551l82.755918 11.535673v90.279184h97.802449l26.080653-22.068245 44.638041 38.619428-21.065143 22.569796h-147.456v150.465306c0 40.792816-19.393306 61.189224-58.179918 61.189225H719.307755c0-38.786612-19.058939-58.347102-57.176816-58.681469l1.504653-34.607021c24.408816 7.021714 43.133388 10.532571 56.173714 10.532572 14.043429 0 21.065143-5.517061 21.065143-16.551184v-112.347429H558.811429c12.371592-77.238857 23.740082-143.276408 34.105469-198.112653l60.687673 10.031021c105.325714-7.690449 191.258122-25.913469 257.797225-54.669062l55.672163 59.183021c-71.554612 21.39951-172.700735 32.433633-303.438367 33.102367l-19.56049 111.344327h96.799347v-101.814857z m136.421878 159.994775c44.805224 29.758694 86.099592 65.536 123.883102 107.331918l-63.69698 61.690776c-23.740082-45.473959-56.508082-88.105796-98.304-127.89551l38.117878-41.127184z m-250.27396 0l80.749715 29.089959c-36.780408 52.830041-80.916898 101.814857-132.40947 146.954449l-40.124081-32.600816c32.433633-35.777306 63.028245-83.591837 91.783836-143.443592z" fill="#d81e06" p-id="1947"></path></svg>